# xmcd
# Copyright (C) 1995-1998 Ti Kan
#
# Track frame offsets:
#       150
#       17052
#       31204
#       43206
#       64418
#       72050
#       79137
#       94964
#       118196
#       129168
#       134065
#       146817
#       154796
#
# Disc length: 2315 seconds
#
# Revision: 0
# Processed by: cddbd v1.5.2PL0 Copyright (c) Steve Scherf et al.
# Submitted via: CD-Transfer v1.0
#
DISCID=be09090d
DTITLE=Ennio Morricone - Once Upon A Time In The West
DYEAR=72
DGENRE=
TTITLE0=Once Upon A Time In The West
TTITLE1=As A Judgement
TTITLE2=Farewell To Cheyenne
TTITLE3=The Transgression
TTITLE4=The First Tavern
TTITLE5=The Second Tavern
TTITLE6=Man With A Harmonica
TTITLE7=A Dimly Lit Room
TTITLE8=Bad Orchestra
TTITLE9=The Man
TTITLE10=Jill's America
TTITLE11=Death Rattle
TTITLE12=Finale
EXTD=
EXTT0=
EXTT1=
EXTT2=
EXTT3=
EXTT4=
EXTT5=
EXTT6=
EXTT7=
EXTT8=
EXTT9=
EXTT10=
EXTT11=
EXTT12=
PLAYORDER=
